<svg xmlns="http://www.w3.org/2000/svg"><symbol id="space-bubles" viewBox="0 0 256 256"><path d="M101.7 148.9H89.9L74 167.6l2.5 3.6 30.5-16-5.3-6.3zM79.8 136h98.5v9.36H79.8zm86-3.6a42.3 42.3 0 0 0 2.2-13.7 39 39 0 0 0-78 0c0 4.7.4 9.5 2.2 13.7zm-73.4 34.7h24.5l-7.4-9-17.1 9zm61.9-18.2l-5.4 6.3 30.6 16 2.5-3.4-15.8-18.9h-11.9z"/><path d="M128 16.2L33.1 71v109.6l94.9 54.8 94.9-54.8V71zm57.6 152.5l-4.1 6a2 2 0 0 1-2.4.5l-8.6-4.5H85.4l-8.7 4.5a1.9 1.9 0 0 1-2.3-.5l-4.2-6a2 2 0 0 1 .2-2.1l15-17.7H78a1.7 1.7 0 0 1-1.8-1.8v-12.9a1.7 1.7 0 0 1 1.8-1.8h10.4a53.4 53.4 0 0 1-2-13.7 42.6 42.6 0 0 1 85.2 0 45.9 45.9 0 0 1-2 13.7H180a1.7 1.7 0 0 1 1.8 1.8v12.9a1.7 1.7 0 0 1-1.8 1.8h-9.1l14.7 17.7a1.7 1.7 0 0 1 0 2.1z"/><path d="M139.2 167.1h24.5l-17.1-9-7.4 9zm-32.8-18.2l15.1 18.2h13l15.1-18.2h-43.2z"/></symbol><symbol id="super-domes" viewBox="0 0 256 256"><path d="M128 19.3L33.1 74.1v109.5l94.9 54.8 94.9-54.8V74.1zm56.9 139.6a1.7 1.7 0 0 1-1.8 1.8h-9V172h9a1.8 1.8 0 0 1 0 3.6H72.9a1.8 1.8 0 1 1 0-3.6h9v-11.3h-9a1.7 1.7 0 0 1-1.8-1.8v-35.5a1.7 1.7 0 0 1 1.8-1.8h11.9c.9-25.5 20-39.5 43.2-39.5s42.3 14 43.2 39.5h11.9a1.7 1.7 0 0 1 1.8 1.8z"/><path d="M137.4 160.7h18v11.34h-18zm21.6 0h11.5v11.34H159zm-58.4 0h18v11.34h-18zm21.6 0h11.5v11.34h-11.5zm-36.7 0H97v11.34H85.5zm42.5-75c-21.1 0-38.7 12.7-39.6 35.9h79.2c-.9-23.2-18.5-35.9-39.6-35.9zm-53.3 71.4h106.6v-31.9H74.7zm52.4-12.2H171a1.8 1.8 0 1 1 0 3.6h-43.9a1.8 1.8 0 1 1 0-3.6z"/><path fill="#fff" d="M127.1 148.5H171a1.8 1.8 0 1 0 0-3.6h-43.9a1.8 1.8 0 1 0 0 3.6z"/></symbol><symbol id="mecha-stilts" viewBox="0 0 256 256"><path d="M129.8 143.8h8.1v19.98h-8.1zm-3.6-17.1V90.3l-25.9 36.4h25.9zm-1.8-40c-23 1.5-42.3 18.2-47.9 40h19.3zm5.4-.1v40.1h49.7a53.6 53.6 0 0 0-49.7-40.1zm-52 57.2h48.4v19.98H77.8z"/><path d="M128 15.5L33.1 70.3v109.6l94.9 54.8 94.9-54.8V70.3zm77.6 128.3h-23.8v21.8a1.7 1.7 0 0 1-1.8 1.8H76a1.7 1.7 0 0 1-1.8-1.8v-21.8H50.4a1.8 1.8 0 1 1 0-3.6h13.5v-11.7a1.7 1.7 0 0 1 1.8-1.8h7A57.1 57.1 0 0 1 127.8 83c.2-.2.4-.2.7 0 26.7.1 48.8 18.9 54.8 43.7h7a1.7 1.7 0 0 1 1.8 1.8v11.7h13.5a1.8 1.8 0 1 1 0 3.6z"/><path d="M141.5 143.8h36.7v19.98h-36.7zm-74-13.5h121v9.9h-121z"/></symbol></svg>