<svg xmlns="http://www.w3.org/2000/svg"><symbol id="space-bubles" viewBox="0 0 189.8 219.2"><path d="M94.9-2.2l94.9 54.8v109.6L94.9 217 0 162.2V52.6L94.9-2.2z"/><path fill="#fff" d="M41.3 156.3l-4.1-6a1.8 1.8 0 0 1 .1-2.1l15-17.7h-7.4a1.7 1.7 0 0 1-1.8-1.8v-12.9a1.7 1.7 0 0 1 1.8-1.8h10.4a53.3 53.3 0 0 1-1.9-13.7 42.6 42.6 0 1 1 83.1 13.7H147a1.7 1.7 0 0 1 1.8 1.8v12.9a1.7 1.7 0 0 1-1.8 1.8h-9.2l14.7 17.7a1.7 1.7 0 0 1 0 2.1l-4.1 6a1.8 1.8 0 0 1-2.3.5l-8.7-4.5H52.3l-8.7 4.5a1.9 1.9 0 0 1-2.3-.5zm27.4-25.8H56.8l-15.9 18.7 2.6 3.6 30.4-16zm-22-12.9v9.3h98.5v-9.3zm12.4-3.6h73.6a42.3 42.3 0 0 0 2.2-13.7 39 39 0 0 0-77.9 0c0 4.7.3 9.5 2.1 13.7zm17.3 25.7l-17.1 9h24.5zm-3.1-9.2l15.2 18.2h12.9l15.1-18.2zm40.2 9.2l-7.4 9h24.5zm19.6-9.2h-11.9l-5.4 6.3 30.6 16 2.5-3.4z"/></symbol><symbol id="mecha-stilts" viewBox="0 0 189.8 219.2"><path d="M94.9-2.9l94.9 54.8v109.6l-94.9 54.8L0 161.5V51.9L94.9-2.9z"/><path fill="#fff" d="M42.9 149a1.7 1.7 0 0 1-1.8-1.8v-21.8H17.3a1.8 1.8 0 1 1 0-3.6h13.5v-11.7a1.7 1.7 0 0 1 1.8-1.8h7.1a56.9 56.9 0 0 1 55-43.7c.2-.2.4-.2.8 0 26.6.1 48.7 18.9 54.7 43.7h7a1.7 1.7 0 0 1 1.8 1.8v11.7h13.5a1.8 1.8 0 1 1 0 3.6h-23.8v21.8a1.7 1.7 0 0 1-1.8 1.8zm-8.5-37.1v9.9h121v-9.9zm56.9-43.6c-23 1.5-42.3 18.2-47.9 40h19.3zm-46.6 57.1v20h48.4v-20zm48.4-53.5l-25.9 36.4h25.9zm3.6-3.7v40.1h49.7a53.6 53.6 0 0 0-49.7-40.1zm0 57.2v20h8.1v-20zm11.7 0v20h36.7v-20z"/></symbol><symbol id="super-domes" viewBox="0 0 189.8 219.2"><path d="M94.9.8l94.9 54.8v109.6L94.9 220 0 165.2V55.6L94.9.8z"/><path fill="#fff" d="M39.8 157.2a1.8 1.8 0 0 1 0-3.6h9v-11.3h-9a1.7 1.7 0 0 1-1.8-1.8V105a1.8 1.8 0 0 1 1.8-1.8h11.9c.9-25.5 20-39.6 43.2-39.6s42.3 14.1 43.2 39.6H150a1.7 1.7 0 0 1 1.8 1.8v35.5a1.7 1.7 0 0 1-1.8 1.8h-9v11.3h9a1.8 1.8 0 0 1 0 3.6zm1.8-50.4v31.9h106.6v-31.9zm10.8 35.5v11.3H64v-11.3zm2.9-39.1h79.2c-.9-23.2-18.5-36-39.6-36s-38.7 12.8-39.6 36zm12.3 39.1v11.3h18v-11.3zm21.6 0v11.3h11.5v-11.3zm48.7-12.2H94a1.8 1.8 0 0 1 0-3.6h43.9a1.8 1.8 0 0 1 0 3.6zm-33.6 12.2v11.3h18v-11.3zm21.6 0v11.3h11.5v-11.3z"/></symbol></svg>